<?xml version="1.0" encoding="UTF-8"?>
<svg version="1.1" xmlns="http://www.w3.org/2000/svg" width="512" height="512">
<path d="M0 0 C168.96 0 337.92 0 512 0 C512 168.96 512 337.92 512 512 C343.04 512 174.08 512 0 512 C0 343.04 0 174.08 0 0 Z " fill="#2E5CFF" transform="translate(0,0)"/>
<path d="M0 0 C3.28024907 1.77680158 4.55298266 3.03345439 6.10870647 6.39725685 C7.39925104 11.61383303 7.27844154 16.6640706 7.26069641 22.01889038 C7.26452196 23.23935456 7.26834751 24.45981874 7.27228898 25.71726668 C7.28081553 29.0974109 7.2803879 32.47733734 7.27610838 35.85747528 C7.27364066 39.50583031 7.28265592 43.15415982 7.29014587 46.80250549 C7.30289375 53.94721642 7.30468644 61.09188977 7.30234561 68.23661016 C7.30056234 74.04446947 7.30231229 79.85231738 7.30657005 85.66017532 C7.30716524 86.48688561 7.30776043 87.3135959 7.30837366 88.16535801 C7.30958541 89.84484596 7.31079955 91.52433391 7.31201603 93.20382185 C7.32289198 108.95348896 7.32072886 124.70313466 7.31463119 140.45280297 C7.30946235 154.85769821 7.32071648 169.26252582 7.33972941 183.66740768 C7.35910655 198.46176501 7.367364 213.25609035 7.36360615 228.05046046 C7.36169387 236.35498634 7.36418426 244.65945466 7.37832069 252.96397018 C7.39023391 260.03395594 7.39164009 267.10384871 7.37953053 274.17383574 C7.37364132 277.77990347 7.37254344 281.38580112 7.38453293 284.99185753 C7.39738778 288.90370342 7.38692815 292.81529155 7.3742218 296.72714233 C7.38159609 297.86314042 7.38897037 298.99913851 7.39656812 300.16956079 C7.35336847 306.48634975 6.74958023 311.2770892 4 317 C0.59866012 320.10979647 -2.26671066 320.23008631 -6.77688599 320.16696167 C-10.56640185 319.88235913 -14.10239368 318.88580651 -17.74609375 317.84765625 C-18.56734238 317.62247818 -19.388591 317.39730011 -20.23472595 317.16529846 C-22.82577543 316.45265961 -25.41278997 315.72643693 -28 315 C-29.63006971 314.55082541 -31.26043682 314.10272857 -32.89111328 313.65576172 C-37.95258187 312.26509901 -43.00779528 310.85251734 -48.0625 309.4375 C-48.97542816 309.18254761 -49.88835632 308.92759521 -50.82894897 308.66491699 C-65.72795615 304.50397785 -80.60208606 300.25934742 -95.46929932 295.98641968 C-107.80230207 292.44473895 -120.16207598 289.05271652 -132.57348633 285.79589844 C-141.71474938 283.38272074 -150.76876605 280.72792552 -159.82006836 277.99902344 C-168.17170683 275.49811567 -176.56812098 273.2139631 -185 271 C-195.84287826 268.15241773 -206.60647712 265.11052784 -217.3371582 261.8659668 C-222.63604849 260.26946829 -227.93566168 258.72933493 -233.29296875 257.33984375 C-234.78666992 256.95046631 -234.78666992 256.95046631 -236.31054688 256.55322266 C-238.15384671 256.07863239 -240.00003179 255.61503033 -241.84960938 255.16552734 C-247.68316496 253.66167036 -254.61709178 251.6523885 -258.08330727 246.33956718 C-259.31327336 243.20046921 -259.2582182 240.55321354 -259.26742554 237.181427 C-259.27195665 236.4962059 -259.27648776 235.8109848 -259.28115618 235.10499942 C-259.29381319 232.80967709 -259.292179 230.51459164 -259.29052734 228.21923828 C-259.29651178 226.57322891 -259.30331713 224.92722235 -259.31088257 223.28121948 C-259.32855822 218.8101067 -259.3332386 214.33907046 -259.33451414 209.86792612 C-259.3364132 206.1353197 -259.3437708 202.40273112 -259.35085833 198.67013156 C-259.36714577 189.86357462 -259.37202695 181.05705856 -259.37060547 172.25048828 C-259.36940386 163.16637358 -259.39050865 154.0824964 -259.4220928 144.99844182 C-259.4482449 137.1987452 -259.45897322 129.39912622 -259.45769465 121.5993861 C-259.45718471 116.94118393 -259.46288554 112.28319283 -259.48405075 107.62503433 C-259.50341528 103.2435285 -259.50356996 98.86243547 -259.48901749 94.48091507 C-259.48692607 92.8740936 -259.49165013 91.26724641 -259.5037384 89.66046906 C-259.51919097 87.46400821 -259.50988466 85.26897078 -259.49447632 83.07254028 C-259.49556585 81.84437654 -259.49665539 80.61621281 -259.49777794 79.35083199 C-258.90086098 75.33263776 -257.50284478 73.16079818 -255 70 C-249.29508291 66.08037644 -241.82039822 64.73710775 -235.1875 63.125 C-227.77980173 61.2597309 -220.42880485 59.30129115 -213.125 57.0625 C-202.53445797 53.8258519 -191.8756026 50.85348421 -181.20556641 47.89111328 C-175.96820066 46.43518145 -170.73425478 44.96706867 -165.5 43.5 C-163.41668358 42.91660627 -161.33335023 42.33327299 -159.25 41.75 C-158.21875 41.46125 -157.1875 41.1725 -156.125 40.875 C-153 40 -149.875 39.125 -146.75 38.25 C-145.71883057 37.96125 -144.68766113 37.6725 -143.62524414 37.375 C-141.54114432 36.79149764 -139.45699715 36.2081644 -137.37280273 35.625 C-132.17579577 34.17063341 -126.97963533 32.71337156 -121.78515625 31.25 C-110.95736305 28.20330293 -100.11740032 25.21504108 -89.25 22.3125 C-81.96641217 20.36541274 -74.72751281 18.35869678 -67.5390625 16.08203125 C-52.22670338 11.40043801 -36.7079226 7.3498429 -21.23950195 3.22143555 C-20.20398193 2.94468994 -19.16846191 2.66794434 -18.1015625 2.3828125 C-17.18713379 2.13934082 -16.27270508 1.89586914 -15.33056641 1.64501953 C-9.96183537 0.15914195 -5.61009677 -0.63628893 0 0 Z " fill="#FDFDFF" transform="translate(369,96)"/>
<path d="M0 0 C0 33.33 0 66.66 0 101 C-7.58074357 99.62168299 -14.49209253 98.07850156 -21.75 95.75 C-29.43671305 93.34778542 -37.13309458 91.11187907 -44.9375 89.125 C-54.37217907 86.71733709 -63.7548624 84.14557511 -73.125 81.5 C-73.81919037 81.30407257 -74.51338074 81.10814514 -75.22860718 80.90628052 C-84.037986 78.41797662 -92.83970976 75.90327952 -101.63818359 73.37670898 C-110.32861468 70.89023796 -119.03986745 68.47881089 -127.75 66.0625 C-129.31713872 65.62760434 -130.88427739 65.19270851 -132.45141602 64.7578125 C-138.27444267 63.14215743 -144.09751891 61.52668324 -149.92138672 59.9140625 C-153.34402921 58.96570244 -156.76586601 58.01449109 -160.1875 57.0625 C-161.16493164 56.79252197 -162.14236328 56.52254395 -163.14941406 56.24438477 C-168.82757329 54.6616104 -174.42805122 52.92410772 -180 51 C-177.55655789 48.55655789 -175.90512481 48.27460719 -172.57421875 47.4140625 C-171.47456787 47.1253125 -170.37491699 46.8365625 -169.24194336 46.5390625 C-168.06897705 46.23742187 -166.89601074 45.93578125 -165.6875 45.625 C-163.28601485 44.99387257 -160.88496591 44.36108281 -158.484375 43.7265625 C-157.40124023 43.44377441 -156.31810547 43.16098633 -155.20214844 42.86962891 C-150.9476232 41.71419898 -146.74485079 40.41461192 -142.54296875 39.08203125 C-134.18439542 36.52930268 -125.73833267 34.26371973 -117.31835938 31.92333984 C-112.0436797 30.45565013 -106.77194133 28.97748939 -101.5 27.5 C-99.4166819 26.91661228 -97.33334853 26.33327905 -95.25 25.75 C-94.21875 25.46125 -93.1875 25.1725 -92.125 24.875 C-89 24 -85.875 23.125 -82.75 22.25 C-81.71883057 21.96125 -80.68766113 21.6725 -79.62524414 21.375 C-77.54114432 20.79149764 -75.45699715 20.2081644 -73.37280273 19.625 C-68.17579577 18.17063341 -62.97963533 16.71337156 -57.78515625 15.25 C-45.80068029 11.87795642 -33.80231494 8.57160642 -21.76391602 5.39648438 C-16.40485272 3.97091655 -11.14693498 2.44866512 -5.9375 0.54199219 C-4 0 -4 0 0 0 Z " fill="#2F5DFF" transform="translate(346,280)"/>
<path d="M0 0 C0 33.33 0 66.66 0 101 C-7.87502348 99.87499665 -7.87502348 99.87499665 -11.01246643 98.99552917 C-11.72547409 98.79799545 -12.43848175 98.60046173 -13.1730957 98.39694214 C-13.93009766 98.18240387 -14.68709961 97.9678656 -15.46704102 97.74682617 C-16.28438217 97.51901962 -17.10172333 97.29121307 -17.9438324 97.0565033 C-20.63172234 96.30620534 -23.31780489 95.54964252 -26.00390625 94.79296875 C-27.88839889 94.26551877 -29.77299851 93.7384509 -31.65769958 93.21174622 C-36.61655892 91.82477177 -41.57389463 90.43242575 -46.53094482 89.03900146 C-51.53334989 87.63392882 -56.53726983 86.23427321 -61.54101562 84.83398438 C-89.98012819 76.87115891 -89.98012819 76.87115891 -103.8707428 72.8924408 C-108.73973289 71.50384117 -113.61761865 70.14779163 -118.49609375 68.79296875 C-120.62438775 68.200009 -122.75264166 67.60690535 -124.88085938 67.01367188 C-128.14407961 66.10436951 -131.40750098 65.1958269 -134.67163086 64.28979492 C-149.84995329 60.07506609 -164.95294501 55.66246964 -180 51 C-177.68467146 48.68467146 -176.34295775 48.36852924 -173.21484375 47.51953125 C-172.22226563 47.24625 -171.2296875 46.97296875 -170.20703125 46.69140625 C-169.12808594 46.40136719 -168.04914063 46.11132812 -166.9375 45.8125 C-164.64448304 45.18376954 -162.35151563 44.55485836 -160.05859375 43.92578125 C-158.88280762 43.60561035 -157.70702148 43.28543945 -156.49560547 42.95556641 C-151.15650933 41.49605933 -145.82854512 39.99747647 -140.5 38.5 C-138.41672764 37.91644895 -136.33339407 37.33311638 -134.25 36.75 C-133.21875 36.46125 -132.1875 36.1725 -131.125 35.875 C-128 35 -124.875 34.125 -121.75 33.25 C-120.20324585 32.816875 -120.20324585 32.816875 -118.62524414 32.375 C-116.54114432 31.79149764 -114.45699715 31.2081644 -112.37280273 30.625 C-107.17579577 29.17063341 -101.97963533 27.71337156 -96.78515625 26.25 C-85.95736305 23.20330293 -75.11740032 20.21504108 -64.25 17.3125 C-56.9848493 15.37034145 -49.76285084 13.37246709 -42.59375 11.09765625 C-37.23205168 9.46000709 -31.83528805 7.95128824 -26.4375 6.4375 C-25.39585693 6.14423828 -24.35421387 5.85097656 -23.28100586 5.54882812 C-3.41701533 0 -3.41701533 0 0 0 Z " fill="#2F5DFF" transform="translate(346,131)"/>
<path d="M0 0 C34.23772722 9.13006059 34.23772722 9.13006059 47.07196045 12.90386963 C51.06525332 14.07774043 55.06218427 15.23913676 59.05859375 16.40234375 C59.83817444 16.62954102 60.61775513 16.85673828 61.42095947 17.09082031 C70.85116794 19.83609174 80.31199846 22.46925881 89.77490234 25.09912109 C93.37961871 26.10604035 96.98108577 27.12423369 100.58203125 28.14453125 C115.09346938 32.25279329 129.62367108 36.25421086 144.20629883 40.10327148 C155.86514353 43.19621126 167.44250897 46.54941744 179 50 C179 50.66 179 51.32 179 52 C169.12751424 54.9837457 159.21449505 57.77659342 149.25 60.4375 C141.5233147 62.50193224 133.80914463 64.59471842 126.125 66.8125 C116.51755349 69.58476 106.88586473 72.26612076 97.25 74.9375 C95.67455701 75.3744176 94.09911755 75.8113479 92.52368164 76.24829102 C90.19819385 76.89324135 87.87270532 77.538189 85.54719543 78.18305969 C71.68326761 82.02839552 57.82556305 85.89375997 44 89.875 C29.3657356 94.03246148 14.67729483 97.99710141 0 102 C0 68.34 0 34.68 0 0 Z " fill="#2E5CFF" transform="translate(140,205)"/>
</svg>
